<svg version="1.1" xmlns="http://www.w3.org/2000/svg" xmlns:xlink="http://www.w3.org/1999/xlink" width="108.23523" height="124.4411" viewBox="0,0,108.23523,124.4411"><g transform="translate(-186.12206,-119.4133)"><g data-paper-data="{&quot;isPaintingLayer&quot;:true}" fill-rule="nonzero" stroke="none" stroke-width="0.81451" stroke-linecap="butt" stroke-linejoin="miter" stroke-miterlimit="10" stroke-dasharray="" stroke-dashoffset="0" style="mix-blend-mode: normal"><g><path d="M260.0258,241.4019c-0.3967,0 -0.808,-0.1099 -1.256,-0.3364c-2.0191,-1.0181 -3.6425,-2.8621 -4.8219,-5.4808l-0.5107,-1.133l1.1404,-0.4919c0.4536,-0.1947 0.9073,-0.4024 1.3659,-0.6288c3.6669,-1.8245 6.9094,-4.65 9.6364,-8.3968l0.5482,-0.7526l0.8707,0.3283c2.8353,1.0686 5.3993,2.2464 7.6197,3.4991c1.3871,0.7827 2.1755,1.8791 2.2171,3.0862c0.0407,1.1769 -0.628,2.2814 -1.8824,3.1073c-0.7656,0.5034 -1.673,0.7591 -2.6952,0.7591c-1.1232,0 -2.2675,-0.307 -3.3508,-0.7233c0.4455,0.5042 0.8161,1.0288 1.1639,1.5403c0.597,0.8764 0.6866,1.8595 0.2443,2.6968c-0.4878,0.9204 -1.5638,1.515 -2.7416,1.515v0c-0.5962,0 -1.1745,-0.154 -1.6746,-0.4472c-1.6021,-0.9391 -2.973,-2.2382 -4.1418,-3.4966c0.4154,2.1193 0.4985,3.7222 -0.2582,4.6573c-0.3632,0.4504 -0.887,0.698 -1.4734,0.698z" fill="#f7941e"/><path d="M266.5687,225.6543c-2.6488,3.64 -6.0241,6.753 -10.0836,8.773c-0.4773,0.2362 -0.9513,0.4529 -1.4237,0.6565c0.8976,1.9907 2.2553,3.8819 4.259,4.8919c0.2802,0.1418 0.5132,0.2053 0.7054,0.2053c1.5622,0 0.4471,-4.189 0.3437,-4.8341c-0.0977,-0.6076 0.4081,-1.2226 0.9562,-1.2226c0.2102,0 0.4268,0.0904 0.6174,0.3063c1.3383,1.5133 2.8174,3.0291 4.5751,4.0603c0.3283,0.193 0.6972,0.2794 1.0564,0.2794c1.2307,0 2.3629,-1.0174 1.4873,-2.3035c-0.6899,-1.0148 -1.3521,-1.8798 -2.3694,-2.5762c-0.821,-0.5629 -0.3437,-1.6682 0.4651,-1.6682c0.1409,0 0.2916,0.0334 0.4472,0.1092c1.2527,0.6068 3.0242,1.4099 4.6549,1.4099c0.72,0 1.414,-0.1572 2.0224,-0.5579c1.8375,-1.2104 1.8025,-2.9445 -0.2631,-4.1092c-2.3629,-1.3334 -4.9001,-2.4582 -7.4503,-3.4201M265.6882,222.7115l1.7423,0.6556c2.8931,1.0915 5.5142,2.2953 7.7883,3.5782c2.3922,1.3488 2.8051,3.1529 2.8377,4.1083c0.0562,1.5956 -0.83,3.1155 -2.4321,4.1703c-0.9685,0.6378 -2.0998,0.9603 -3.3655,0.9603c-0.2167,0 -0.4309,-0.0098 -0.6459,-0.0269c0.3225,0.9709 0.2549,1.9956 -0.2175,2.8899c-0.6964,1.3154 -2.1967,2.1658 -3.8217,2.1658c-0.8129,0 -1.6046,-0.2126 -2.292,-0.615c-0.7143,-0.4186 -1.3814,-0.8984 -2.0053,-1.4115c-0.0684,0.8634 -0.3087,1.6469 -0.8276,2.2879c-0.5929,0.7298 -1.4758,1.1493 -2.4239,1.1493c-0.5848,0 -1.1925,-0.1572 -1.8058,-0.4667c-2.2765,-1.1477 -4.088,-3.1896 -5.3863,-6.0697l-1.0206,-2.2643l2.2814,-0.9832c0.4716,-0.2028 0.8984,-0.3999 1.3032,-0.5994c3.4918,-1.7382 6.5853,-4.4375 9.195,-8.0237l1.0963,-1.5052z" fill="#000000"/></g><g><path d="M217.037,242.6351c-0.5164,-0.0008 -0.9864,-0.2191 -1.3236,-0.6141c-0.7266,-0.8536 -0.6524,-2.4362 -0.4618,-3.6148c0.0505,-0.3169 0.1156,-0.6264 0.1889,-0.9294c-1.5573,1.5264 -3.3085,2.9298 -5.4466,3.7044c-0.5099,0.1857 -0.9529,0.2753 -1.3529,0.2753c-0.7786,0 -1.4197,-0.3592 -1.7593,-0.9855c-0.9717,-1.7936 1.2087,-5.2308 1.2307,-5.265c0.237,-0.3617 0.4863,-0.7038 0.7477,-1.0263c-1.2673,0.4814 -2.9037,0.9872 -4.1393,0.9872c-0.9236,0 -1.62,-0.2721 -2.0721,-0.808c-0.2875,-0.3413 -0.5954,-0.944 -0.4341,-1.8799c0.2712,-1.5728 1.8245,-2.8361 3.3924,-3.9951l0.2672,-0.198c1.4164,-1.0645 2.9534,-1.9336 4.4398,-2.775c0.5808,-0.3282 1.1623,-0.6581 1.7357,-0.9978l0.9612,-0.5701l0.6532,0.9065c2.406,3.3387 5.4995,6.0559 9.1958,8.0759l0.8976,0.4911l-0.325,0.9693c-0.874,2.6048 -2.0135,4.6484 -3.5847,6.4313c-1.1093,1.2568 -1.976,1.818 -2.8108,1.818z" fill="#f7941e"/><path d="M212.6728,225.5647c-2.037,1.2079 -4.1735,2.2773 -6.064,3.6986c-0.9114,0.6859 -2.9574,2.0819 -3.1896,3.425c-0.1612,0.9343 0.4203,1.2585 1.3024,1.2585c1.9182,0 5.256,-1.5338 5.4523,-1.6527c0.1271,-0.0782 0.2582,-0.1124 0.3861,-0.1124c0.6589,0 1.2234,0.9041 0.6084,1.4018c-0.7933,0.6426 -1.4726,1.4351 -2.0321,2.2912c-0.2468,0.3787 -2.4387,4.3609 -0.4953,4.3609c0.2428,0 0.5506,-0.0619 0.9359,-0.202c2.3775,-0.861 4.3079,-2.657 6.0233,-4.4643c0.1645,-0.1735 0.3624,-0.2477 0.5579,-0.2477c0.5009,0 0.9831,0.4896 0.8341,1.0573c-0.1923,0.733 -0.4162,1.4718 -0.5352,2.2228c-0.0708,0.4365 -0.4007,2.8116 0.5791,2.8116c0.3902,0 0.9889,-0.3771 1.8946,-1.4042c1.5695,-1.7797 2.595,-3.7809 3.3427,-6.011c-3.7532,-2.0518 -7.0455,-4.8879 -9.6006,-8.4334M213.3489,222.3221l1.3081,1.8115c2.2977,3.1888 5.256,5.7862 8.7901,7.7191l1.7952,0.9806l-0.6508,1.9402c-0.9147,2.7269 -2.1658,4.9668 -3.8265,6.85c-0.9734,1.1028 -2.1772,2.2309 -3.7272,2.2309c-0.8675,0 -1.6893,-0.3812 -2.2538,-1.0434c-0.5041,-0.5929 -0.7933,-1.4009 -0.865,-2.4125c-1.0572,0.7827 -2.2203,1.4628 -3.5072,1.9295c-0.6467,0.2346 -1.2259,0.3486 -1.77,0.3486c-1.2225,0 -2.2822,-0.6076 -2.8336,-1.6257c-0.7991,-1.4743 -0.2427,-3.425 0.3722,-4.8138c-0.5074,0.0945 -1.0018,0.1507 -1.458,0.1507c-1.6192,0 -2.529,-0.676 -3.0063,-1.2429c-0.3722,-0.4415 -0.9579,-1.4018 -0.7037,-2.8744c0.3771,-2.1861 2.5632,-3.8029 3.8689,-4.7689l0.2598,-0.1931c1.4791,-1.1118 3.0511,-2.0004 4.5718,-2.8613c0.5734,-0.3242 1.1477,-0.6492 1.7137,-0.9848l1.9223,-1.1403z" fill="#000000"/></g><g><g><path d="M241.5544,236.6468c-0.6076,0 -1.2177,-0.0162 -1.8277,-0.0488l-0.334,-0.0179c-4.9815,-0.2664 -9.6861,-0.5189 -14.6057,-2.7172c-0.4773,-0.2134 -0.9351,-0.4553 -1.392,-0.6964c-4.5254,-2.3963 -8.4008,-6.2131 -11.2777,-11.0716c-6.8271,-11.5342 -5.0751,-25.3442 4.8056,-37.89l0.1475,-0.1866l0.281,-0.1596c0.0545,-0.0481 0.0309,-0.1409 -0.0424,-0.2232c-0.0464,-0.0529 -0.1026,-0.0888 -0.1393,-0.0888c-0.0252,0 -0.0651,0.0131 -0.1075,0.0359c-4.9994,2.6479 -9.1078,6.4924 -12.9278,12.0987l-0.1214,0.1783c-1.7862,2.6203 -3.6343,5.3302 -5.8881,7.7452c-1.6021,1.7169 -4.6068,3.5431 -7.0194,3.5431c-1.0466,0 -1.9434,-0.3462 -2.5934,-1.0011c-0.7884,-0.7949 -1.1818,-1.9988 -1.1696,-3.5789c0.0489,-5.871 4.5124,-12.0115 8.8724,-17.2447c3.5138,-4.2159 7.7044,-7.6727 11.7566,-11.0154c2.0306,-1.6754 4.1287,-3.4063 6.1096,-5.208l-0.0041,-0.0496c-0.7745,-1.019 -1.5858,-2.033 -2.3726,-3.0162c-2.7873,-3.4844 -5.669,-7.0878 -7.4185,-11.4454c-2.4028,-5.9842 -1.4881,-12.9458 2.5771,-19.6019c5.4889,-8.9873 17.0508,-14.3516 30.9308,-14.3516c0.2819,0 0.5629,0.0024 0.8439,0.0065c10.9201,0.1784 23.2647,1.7219 32.0239,11.8226c4.8308,5.5704 6.793,12.9465 5.2495,19.7322c-1.4694,6.459 -6.2619,11.7769 -11.2215,16.5614c-0.0887,0.0863 -0.0847,0.1254 -0.0838,0.1457l0.0187,0.1801l-0.0212,0.1148c1.7186,1.2234 3.6539,2.4851 5.7007,3.8192c9.7138,6.332 21.8019,14.2132 22.8046,26.1685c0.1319,1.5703 -0.2159,2.8165 -1.0328,3.7052c-0.799,0.869 -2.0192,1.3292 -3.5268,1.3292c0,0 0,0 -0.0008,0c-2.0705,0 -4.2966,-0.8413 -5.5753,-1.5622c-3.0243,-1.7056 -5.4385,-4.2615 -7.7737,-6.7343l-0.0863,-0.0912c-0.7306,-0.7738 -1.4555,-1.568 -2.1845,-2.3654c-3.1595,-3.46 -6.4224,-7.034 -10.5055,-9.1835c9.7781,12.4236 11.7248,24.7805 5.8001,36.7594c-2.5804,5.2186 -6.7409,9.419 -12.0335,12.1484c-4.3837,2.2603 -9.4442,3.4551 -14.6351,3.4551z" fill="#898dc5"/><path d="M237.7938,121.8569c-11.1449,0 -23.7542,3.7231 -29.8866,13.7651c-3.4112,5.5867 -5.0117,12.2217 -2.4859,18.5105c2.2154,5.5191 6.3254,9.7863 9.8506,14.4697c0.1466,0.193 0.136,0.4162 0.0456,0.6092c0.0188,0.2273 -0.0488,0.4594 -0.2606,0.6533c-5.9768,5.4629 -12.6688,9.9614 -17.902,16.2396c-3.4658,4.1605 -8.5401,10.6212 -8.589,16.4726c-0.0204,2.4728 1.0817,3.3476 2.5404,3.3476c2.0404,0 4.7796,-1.7113 6.1259,-3.1546c2.2391,-2.3987 4.0514,-5.0776 5.893,-7.7777c3.5757,-5.2471 7.7044,-9.4915 13.366,-12.4905c0.233,-0.1238 0.4619,-0.1775 0.6785,-0.1775c1.2804,0 2.1259,1.8945 0.7469,2.6178c-0.0114,0.0041 -0.0228,0.0122 -0.0342,0.0187c-8.3373,10.5853 -12.0368,24.1404 -4.7143,36.5111c2.6056,4.4008 6.1983,8.1776 10.7286,10.5772c0.4562,0.241 0.9123,0.4846 1.388,0.698c4.8169,2.1519 9.3562,2.3531 14.5063,2.63c0.5889,0.0318 1.1762,0.0473 1.7626,0.0473c4.9571,0 9.8132,-1.1216 14.0755,-3.3191c4.8406,-2.4957 8.9164,-6.3817 11.4984,-11.6043c6.3694,-12.8798 2.5836,-25.1658 -5.9671,-35.8391c-0.6427,-0.8015 -0.0969,-1.853 0.7721,-1.8538c0.1735,0 0.3609,0.0423 0.5531,0.1368c5.4824,2.6936 9.397,7.6898 13.5159,12.049c2.2652,2.3987 4.672,4.9652 7.5725,6.6008c1.2673,0.7151 3.2572,1.405 4.975,1.405c1.967,0 3.5781,-0.9049 3.3419,-3.7109c-1.1574,-13.8083 -18.1692,-22.087 -28.0524,-29.1357c-0.4089,-0.2908 -0.5221,-0.7282 -0.4472,-1.1208c-0.0415,-0.3901 0.0823,-0.7974 0.4504,-1.1541c4.5401,-4.3796 9.432,-9.5941 10.8778,-15.9529c1.5011,-6.5992 -0.5563,-13.5583 -4.9807,-18.6604c-8.1337,-9.379 -19.3617,-11.2092 -31.1215,-11.4014c-0.2737,-0.0041 -0.5482,-0.0065 -0.8235,-0.0065M237.7938,119.4133v0c0.2892,0 0.5767,0.0025 0.8634,0.0074c11.1905,0.1824 23.8528,1.7797 32.9289,12.2436c5.0841,5.8628 7.1464,13.6406 5.5174,20.8033c-1.4636,6.433 -5.9858,11.7037 -10.8019,16.4278c1.4416,0.9945 3.0193,2.0232 4.6703,3.0992c9.9362,6.4778 22.302,14.5397 23.3544,27.0888c0.202,2.398 -0.6223,3.8437 -1.3497,4.6346c-0.7232,0.7868 -2.0786,1.7243 -4.4268,1.7243c-2.3051,0 -4.7013,-0.8878 -6.1756,-1.7194c-3.1855,-1.796 -5.7757,-4.5393 -8.062,-6.96l-0.0855,-0.0904c-0.7404,-0.7844 -1.4816,-1.5956 -2.1984,-2.3808c-1.4547,-1.5924 -2.9297,-3.2091 -4.492,-4.6883c6.2449,10.7311 6.8834,21.6675 1.783,31.9808c-2.6968,5.4547 -7.0438,9.8441 -12.5695,12.6932c-4.5563,2.3499 -9.8115,3.5912 -15.1954,3.5912c-0.628,0 -1.2649,-0.0171 -1.8937,-0.0505l-0.3331,-0.0179c-5.0972,-0.2729 -9.9126,-0.5311 -15.0407,-2.8223c-0.5262,-0.2354 -1.0027,-0.4879 -1.4637,-0.7322l-0.0692,-0.0367c-4.6541,-2.4655 -8.6957,-6.4386 -11.6874,-11.4918c-6.3205,-10.6782 -5.5981,-23.1955 1.8449,-34.9627c-2.8109,2.2399 -5.3456,5.0605 -7.7671,8.6142l-0.1206,0.1776c-1.8123,2.6585 -3.6864,5.4083 -6.0037,7.8901c-1.4743,1.5801 -4.7983,3.9316 -7.9129,3.9316c-1.3798,0 -2.5771,-0.4708 -3.4609,-1.3619c-1.0263,-1.0352 -1.5394,-2.5323 -1.5239,-4.4504c0.0521,-6.2546 4.6573,-12.6175 9.1558,-18.0169c3.5863,-4.303 7.8217,-7.7973 11.9171,-11.1758c1.7414,-1.436 3.5325,-2.9135 5.2478,-4.435c-0.5595,-0.7176 -1.1313,-1.4327 -1.6909,-2.1324c-2.8426,-3.5537 -5.7821,-7.2287 -7.5985,-11.7533c-2.551,-6.3507 -1.6038,-13.7 2.6675,-20.6942c5.7113,-9.3521 17.6634,-14.9348 31.9726,-14.9348v0z" fill="#000000"/></g><path d="M255.4588,175.0571c0,5.7065 9.9777,16.2242 9.9777,34.4178c0,11.9521 -5.8163,19.1189 -9.8066,22.6303c-4.7673,2.4581 -10.2758,3.5699 -15.8381,3.2726c-5.1501,-0.2761 -9.6893,-0.4773 -14.5063,-2.63c-0.4757,-0.2126 -0.931,-0.4561 -1.388,-0.698c-3.9886,-3.5309 -9.7447,-10.6839 -9.7447,-22.5741c0,-18.1936 9.9777,-28.7113 9.9777,-34.4177c0,-5.7065 -24.4352,-26.0594 -8.5108,-42.3625c10.688,-10.9429 24.1746,0.7941 24.1746,0.7941c0,0 13.4874,-11.7362 24.1745,-0.7941c15.9252,16.3031 -8.51,36.6552 -8.51,42.3616z" fill="#ffffff"/></g><g><g><path d="M238.9618,175.475c-7.8942,0 -16.681,-10.499 -16.681,-17.6137c0,-5.994 8.4057,-14.3337 16.681,-14.3337c8.6086,0 16.7137,8.075 16.7137,14.3337c0.0008,6.1593 -8.5906,17.6137 -16.7137,17.6137z" fill="#f7941e"/><path d="M238.9618,144.7494c-7.7532,0 -15.4585,8.0212 -15.4593,13.1119c0,6.2668 8.2461,16.3919 15.4593,16.3919c7.2133,0 15.4919,-10.6309 15.4919,-16.3919c0,-5.761 -7.7386,-13.1119 -15.4919,-13.1119M238.9618,142.3058c8.7169,0 17.9363,7.9952 17.9355,15.5555c0,6.7514 -9.0402,18.8354 -17.9355,18.8354c-8.4725,0 -17.9028,-11.2271 -17.9028,-18.8354c0,-6.5055 9.0215,-15.5555 17.9028,-15.5555z" fill="#000000"/></g><path d="M229.9705,166.267c-1.0377,-0.8634 0.4724,-2.4525 1.436,-1.8766c2.7326,1.6339 5.8033,5.1607 9.3285,3.956c2.1919,-0.7485 3.8469,-2.5347 5.7692,-3.8876c1.0816,-0.7616 2.5266,0.9676 1.4571,1.8872c-2.2358,1.923 -5.5223,4.3576 -8.6517,4.154c-3.5724,-0.2322 -6.6252,-1.976 -9.3391,-4.233z" fill="#231f20"/></g><path d="M222.1455,139.5015c0.852,0 1.6234,0.4415 2.1821,1.1533c0.5588,0.7127 0.9049,1.6975 0.9049,2.7832c0,1.0857 -0.3461,2.0705 -0.9049,2.7832c-0.5587,0.7119 -1.3301,1.1533 -2.1821,1.1533c-0.8519,0 -1.6233,-0.4414 -2.182,-1.1533c-0.5588,-0.7127 -0.9049,-1.6975 -0.9049,-2.7832c0,-1.0857 0.3461,-2.0705 0.9049,-2.7832c0.5587,-0.7118 1.3301,-1.1533 2.182,-1.1533z" fill="#231f20"/><path d="M255.1835,139.5015c0.852,0 1.6242,0.4415 2.1837,1.1533c0.5588,0.7127 0.905,1.6975 0.905,2.7832c0,1.0857 -0.3462,2.0705 -0.905,2.7832c-0.5595,0.7119 -1.3317,1.1533 -2.1837,1.1533c-0.8519,0 -1.6241,-0.4414 -2.1836,-1.1533c-0.5588,-0.7127 -0.905,-1.6975 -0.905,-2.7832c0,-1.0857 0.3462,-2.0705 0.905,-2.7832c0.5595,-0.7118 1.3317,-1.1533 2.1836,-1.1533z" fill="#231f20"/></g></g></svg>